<svg width="1265" height="1265" xmlns="http://www.w3.org/2000/svg" xmlns:xlink="http://www.w3.org/1999/xlink" xml:space="preserve" overflow="hidden"><defs><linearGradient x1="1262.78" y1="1235.99" x2="1715.21" y2="1073.51" gradientUnits="userSpaceOnUse" spreadMethod="reflect" id="fill0"><stop offset="0" stop-color="#F0F8FD" stop-opacity="0"/><stop offset="0.57" stop-color="#4890C9" stop-opacity="1"/><stop offset="1" stop-color="#0064B3" stop-opacity="1"/></linearGradient><linearGradient x1="1221.23" y1="1359.59" x2="1756.76" y2="1201.99" gradientUnits="userSpaceOnUse" spreadMethod="reflect" id="fill1"><stop offset="0" stop-color="#F0F8FD" stop-opacity="0"/><stop offset="0.57" stop-color="#4890C9" stop-opacity="1"/><stop offset="1" stop-color="#0064B3" stop-opacity="1"/></linearGradient><clipPath id="clip2"><path d="M1111.69 867.183 2053.18 606.132 2314.23 1547.62 1372.74 1808.67Z" fill-rule="nonzero" clip-rule="nonzero"/></clipPath><clipPath id="clip3"><path d="M1111.69 867.183 2053.18 606.132 2314.23 1547.62 1372.74 1808.67Z" fill-rule="evenodd" clip-rule="evenodd"/></clipPath><clipPath id="clip4"><path d="M1111.69 867.183 2053.18 606.132 2314.23 1547.62 1372.74 1808.67Z" fill-rule="evenodd" clip-rule="evenodd"/></clipPath></defs><g transform="translate(-1104 -545)"><g><rect x="1107" y="549" width="1259" height="1259" fill="#DAEBF5" fill-opacity="1"/><path d="M1677.65 1053.89C1695.23 1052.91 1710.35 1059.98 1714.99 1072.88 1721.16 1090.08 1706.36 1111.14 1681.91 1119.92L1678.91 1120.54 1679.11 1121.11C1663.37 1128.58 1594.31 1161.11 1256.21 1217.71 1544.71 1111.5 1523.28 1111.92 1656.81 1059.02L1656.83 1059.06 1659.54 1057.62C1665.65 1055.43 1671.79 1054.21 1677.65 1053.89Z" fill="url(#fill0)" fill-rule="evenodd"/><path d="M1715.96 1181.51C1736.19 1180.8 1752.7 1188.2 1756.57 1201.35 1761.73 1218.88 1742.46 1240 1713.53 1248.51L1710.02 1249.1 1710.19 1249.67C1691.36 1257 1608.75 1288.89 1215.75 1340.95 1557.52 1237.82 1532.96 1237.91 1691.56 1186.39L1691.57 1186.43 1694.84 1185.02C1702.07 1182.89 1709.22 1181.75 1715.96 1181.51Z" fill="url(#fill1)" fill-rule="evenodd"/><g clip-path="url(#clip2)"><g clip-path="url(#clip3)"><g clip-path="url(#clip4)"><path d="M2067.09 1383.8C2080.82 1379.99 2091.23 1371.83 2098.31 1359.3 2105.4 1346.77 2107.04 1333.64 2103.23 1319.91 2099.43 1306.18 2091.26 1295.78 2078.73 1288.69 2066.21 1281.6 2053.08 1279.96 2039.35 1283.77 2025.62 1287.57 2015.21 1295.74 2008.12 1308.27 2001.03 1320.79 1999.39 1333.92 2003.2 1347.65 2007.01 1361.38 2015.17 1371.79 2027.7 1378.88 2040.23 1385.97 2053.36 1387.61 2067.09 1383.8ZM2083.58 1442.59C2053.39 1450.96 2024.73 1447.53 1997.63 1432.29 1970.52 1417.05 1952.78 1394.33 1944.41 1364.14 1936.04 1333.95 1939.47 1305.3 1954.71 1278.19 1969.95 1251.08 1992.67 1233.34 2022.86 1224.97 2053.05 1216.6 2081.7 1220.03 2108.81 1235.27 2135.92 1250.52 2153.66 1273.24 2162.03 1303.42 2170.4 1333.62 2166.97 1362.27 2151.73 1389.37 2136.48 1416.48 2113.76 1434.22 2083.58 1442.59ZM1500.23 1540.97C1513.96 1537.17 1524.37 1529 1531.46 1516.47 1538.55 1503.95 1540.19 1490.82 1536.38 1477.09 1532.57 1463.36 1524.41 1452.95 1511.88 1445.86 1499.35 1438.77 1486.23 1437.13 1472.5 1440.94 1458.77 1444.75 1448.36 1452.91 1441.27 1465.44 1434.18 1477.97 1432.54 1491.1 1436.35 1504.83 1440.15 1518.56 1448.32 1528.96 1460.85 1536.05 1473.37 1543.14 1486.5 1544.78 1500.23 1540.97ZM1516.55 1599.82C1486.31 1608.2 1457.68 1604.76 1430.66 1589.5 1403.62 1574.23 1385.92 1551.5 1377.55 1521.32 1369.18 1491.12 1372.64 1462.47 1387.91 1435.35 1403.19 1408.23 1425.94 1390.48 1456.18 1382.1 1480.37 1375.39 1503.9 1376.44 1526.75 1385.24 1549.61 1394.04 1567.81 1408.88 1581.35 1429.77L1818.68 1363.96C1810.86 1315.44 1818.21 1269.57 1840.73 1226.36 1863.24 1183.16 1896.86 1150.78 1941.58 1129.22L1802.02 865.87 1647.07 908.835 1630.76 849.992 1787.67 806.484C1801.4 802.677 1814.84 803.527 1827.98 809.036 1841.13 814.544 1851.24 823.71 1858.31 836.534L2027.21 1156.18 2005.63 1162.16C1958.7 1175.17 1923.19 1203.12 1899.09 1245.99 1874.99 1288.86 1869.49 1333.9 1882.57 1381.1L1889.92 1407.58 1599.62 1488.07C1600.45 1513.89 1592.96 1537.27 1577.15 1558.19 1561.35 1579.12 1541.14 1593 1516.55 1599.82Z" fill="#0065B3" fill-rule="nonzero" fill-opacity="1"/></g></g></g></g></g></svg>